# AST/ASF file generated using VICON BodyLanguage
# -----------------------------------------------
:version 1.10
:name VICON
:units
  mass 1.0
  length 0.45
  angle deg
:documentation
   .ast/.asf automatically generated from VICON data using
   VICON BodyBuilder and BodyLanguage model FoxedUp or BRILLIANT.MOD
:root
   order TX TY TZ RX RY RZ
   axis XYZ
   position 0 0 0  
   orientation 0 0 0 
:bonedata
  begin
     id 1 
     name lhipjoint
     direction 0.567725 -0.736092 0.368589 
     length 2.42353 
     axis 0 0 0  XYZ
  end
  begin
     id 2 
     name lfemur
     direction 0.34202 -0.939693 0  
     length 7.24894  
     axis 0 0 20  XYZ
    dof rx ry rz
    limits (-160.0 20.0)
           (-70.0 70.0)
           (-60.0 70.0)
  end
  begin
     id 3 
     name ltibia
     direction 0.34202 -0.939693 0   
     length 7.6997   
     axis 0 0 20   XYZ
    dof rx
    limits (-10.0 170.0)
  end
  begin
     id 4 
     name lfoot
     direction 0.100767 -0.276854 0.955614   
     length 2.37556   
     axis -90 7.62852e-016 20   XYZ
    dof rx rz
    limits (-45.0 90.0)
           (-70.0 20.0)
  end
  begin
     id 5 
     name ltoes
     direction 1.53592e-011 -4.21894e-011 1   
     length 1.18363   
     axis -90 7.62852e-016 20   XYZ
    dof rx
    limits (-90.0 20.0)
  end
  begin
     id 6 
     name rhipjoint
     direction -0.556459 -0.742938 0.372017   
     length 2.4012  
     axis 0 0 0  XYZ 
  end
  begin
     id 7 
     name rfemur
     direction -0.34202 -0.939693 0   
     length 7.5119   
     axis 0 0 -20   XYZ
    dof rx ry rz
    limits (-160.0 20.0)
           (-70.0 70.0)
           (-70.0 60.0)
  end
  begin
     id 8 
     name rtibia
     direction -0.34202 -0.939693 0   
     length 7.50155   
     axis 0 0 -20   XYZ
    dof rx
    limits (-10.0 170.0)
 end
 begin
     id 9 
     name rfoot
     direction -0.118427 -0.325376 0.938139   
     length 2.32487  
     axis -90 -7.62852e-016 -20   XYZ
    dof rx rz
    limits (-45.0 90.0)
           (-20.0 70.0)
  end
  begin
     id 10 
     name rtoes
     direction -1.53525e-011 -4.21868e-011 1   
     length 1.15233   
     axis -90 -7.62852e-016 -20   XYZ
    dof rx
    limits (-90.0 20.0)
  end
  begin
     id 11 
     name lowerback
     direction 0.0287568 0.999577 -0.00434502   
     length 2.15243   
     axis 0 0 0   XYZ
    dof rx ry rz
    limits (-20.0 45.0)
           (-30.0 30.0)
           (-30.0 30.0)
  end
  begin
     id 12 
     name upperback
     direction 0.0294009 0.99956 0.00404628   
     length 2.15427   
     axis 0 0 0   XYZ
    dof rx ry rz
    limits (-20.0 45.0)
           (-30.0 30.0)
           (-30.0 30.0)
  end
  begin
     id 13 
     name thorax
     direction 0.0151014 0.999868 0.0059419   
     length 2.14898   
     axis 0 0 0   XYZ
    dof rx ry rz
    limits (-20.0 45.0)
           (-30.0 30.0)
           (-30.0 30.0)
  end
  begin
     id 14 
     name lowerneck
     direction -0.0249197 0.989906 0.139515   
     length 1.6861   
     axis 0 0 0   XYZ
    dof rx ry rz
    limits (-20.0 45.0)
           (-30.0 30.0)
           (-30.0 30.0)
  end
  begin
     id 15 
     name upperneck
     direction 0.0438463 0.988795 -0.142693   
     length 1.71276   
     axis 0 0 0   XYZ
    dof rx ry rz
    limits (-20.0 45.0)
           (-30.0 30.0)
           (-30.0 30.0)
  end
  begin
     id 16
     name head
     direction 0.0148499 0.997845 -0.0639186  
     length 1.7209  
     axis 0 0 0   XYZ
    dof rx ry rz
    limits (-20.0 45.0)
           (-30.0 30.0)
           (-30.0 30.0)
  end
  begin
     id 17 
     name lclavicle
     direction 0.940298 0.323464 -0.105876  
     length 3.9048  
     axis 0 0 0   XYZ
    dof ry rz
    limits (-20.0 10.0)
           (0.0 20.0)
  end
  begin
     id 18 
     name lhumerus
     direction 1 -4.48954e-011 -4.9675e-028   
     length 4.6851   
     axis 180 -30 -90   XYZ
    dof rx ry rz
    limits (-60.0 90.0)
           (-90.0 90.0)
           (-90.0 90.0)
  end
  begin
     id 19
     name lradius
     direction 1 -4.48992e-011 -1.03359e-026   
     length 3.39626   
     axis 180 -30 -90   XYZ
    dof rx
    limits (-10.0 170.0)
  end
  begin
     id 20
     name lwrist
     direction 1 -4.48906e-011 -1.67336e-026   
     length 1.69813   
     axis 9.90442e-015 90 90   XYZ
    dof ry
    limits (-180.0 0.0)
 end
  begin
     id 21 
     name lhand
     direction 1 -4.49006e-011 -3.34673e-026   
     length 0.486078   
     axis 2.1355e-014 90 90   XYZ
    dof rx rz
    limits (-90.0 90.0)
           (-45.0 45.0)
  end
  begin
     id 22 
     name lfingers
     direction 1 -4.48992e-011 -6.69345e-026   
     length 0.391889   
     axis 4.27099e-014 90 90   XYZ
    dof rx
    limits (0.0 90.0)
  end
  begin
     id 23
     name lthumb
     direction 0.707107 -6.34926e-011 0.707107   
     length 0.562676   
     axis -90 45 2.85299e-015   XYZ
    dof rx rz
    limits (-45.0 45.0)
           (-45.0 45.0)
  end
  begin
     id 24 
     name rclavicle
     direction -0.882459 0.414895 -0.221648   
     length 3.44646  
     axis 0 0 0   XYZ 
    dof ry rz
    limits (-10.0 20.0)
           (-20.0 0.0)
  end
  begin
     id 25 
     name rhumerus
     direction -1 -4.48962e-011 -2.37984e-027  
     length 5.55576   
     axis 180 30 90   XYZ
    dof rx ry rz
    limits (-90.0 60.0)
           (-90.0 90.0)
           (-90.0 90.0)
  end
  begin
     id 26 
     name rradius
     direction -1 -4.48982e-011 -6.86791e-027   
     length 3.32774   
     axis 180 30 90   XYZ
    dof rx
    limits (-10.0 170.0)
  end
  begin
     id 27 
     name rwrist
     direction -1 -4.48961e-011 -1.67336e-026   
     length 1.66387   
     axis 9.90442e-015 -90 -90   XYZ
    dof ry
    limits (-180.0 0.0)
  end
  begin
     id 28
     name rhand
     direction -1 -4.4897e-011 -3.34673e-026   
     length 0.507628   
     axis 2.1355e-014 -90 -90   XYZ
    dof rx rz
    limits (-90.0 90.0)
           (-45.0 45.0)
  end
  begin
     id 29
     name rfingers
     direction -1 -4.48854e-011 -6.69345e-026   
     length 0.409263   
     axis 4.27099e-014 -90 -90   XYZ
    dof rx
    limits (0.0 90.0)
  end
  begin
     id 30
     name rthumb
     direction -0.707107 -6.34913e-011 0.707107   
     length 0.587622   
     axis -90 -45 -2.85299e-015   XYZ
    dof rx rz
    limits (-45.0 45.0)
           (-45.0 45.0)
  end
:hierarchy
  begin
    root lhipjoint rhipjoint lowerback
    lhipjoint lfemur
    lfemur ltibia
    ltibia lfoot
    lfoot ltoes
    rhipjoint rfemur
    rfemur rtibia
    rtibia rfoot
    rfoot rtoes
    lowerback upperback
    upperback thorax
    thorax lowerneck lclavicle rclavicle
    lowerneck upperneck
    upperneck head
    lclavicle lhumerus
    lhumerus lradius
    lradius lwrist
    lwrist lhand lthumb
    lhand lfingers
    rclavicle rhumerus
    rhumerus rradius
    rradius rwrist
    rwrist rhand rthumb
    rhand rfingers
  end

#!OML:ASF E:\motion texture\Top Level 1\Subject 1\Session 1\male.ASF
:FULLY-SPECIFIED
:DEGREES
57
root 40.3233 17.6748 6.42791 114.544 -84.8677 -106.425
lowerback -4.19935 -0.251754 6.23999
upperback -2.53601 -0.723818 4.4727
thorax -0.275183 -0.46873 1.08499
lowerneck -15.4413 -4.50893 -9.10262
upperneck 12.2694 -5.10166 6.37582
head 6.6708 -2.36953 3.00733
rclavicle 7.28049e-015 -7.23576e-014
rhumerus -7.64098 -7.35466 -86.439
rradius 31.4593
rwrist -26.0301
rhand 10.1523 -31.2578
rfingers 7.12502
rthumb 35.2707 -57.7502
lclavicle 7.28049e-015 -7.23576e-014
lhumerus -17.905 5.32832 94.2233
lradius 28.5482
lwrist -20.1289
lhand -12.2631 21.1216
lfingers 7.12502
lthumb 13.8035 50.6437
rfemur -10.2178 2.84763 27.8859
rtibia 19.3511
rfoot -12.8684 -11.3471
rtoes 13.4325
lfemur -23.6852 1.68918 -11.405
ltibia 38.5191
lfoot -12.583 3.3395
ltoes -10.2647
58
root 40.3009 17.675 6.4154 114.882 -84.7858 -106.828
lowerback -4.16456 -0.191181 6.35216
upperback -2.57855 -0.642177 4.46383
thorax -0.338107 -0.431811 1.01749
lowerneck -15.3033 -4.53382 -9.15624
upperneck 12.2925 -5.14345 6.40761
head 6.66062 -2.39257 3.02355
rclavicle -1.26974e-014 5.64548e-014
rhumerus -6.23893 -5.98524 -86.7988
rradius 32.6898
rwrist -27.0447
rhand 9.97003 -31.6008
rfingers 7.12502
rthumb 35.0979 -58.134
lclavicle -1.26974e-014 5.64548e-014
lhumerus -17.3451 4.29549 94.4355
lradius 29.3102
lwrist -19.5403
lhand -12.2362 21.0724
lfingers 7.12502
lthumb 13.8294 50.5926
rfemur -10.0034 2.86021 28.0101
rtibia 19.2607
rfoot -12.9242 -11.2267
rtoes 13.4881
lfemur -24.3018 1.79494 -11.3618
ltibia 39.2948
lfoot -12.538 3.45286
ltoes -10.7365
59
root 40.2768 17.6754 6.4031 115.249 -84.7056 -107.258
lowerback -4.12813 -0.129268 6.46237
upperback -2.62341 -0.558141 4.45185
thorax -0.403995 -0.393871 0.947889
lowerneck -15.167 -4.55967 -9.20576
upperneck 12.3026 -5.18732 6.44248
head 6.64674 -2.41607 3.03987
rclavicle 1.35919e-014 -5.96354e-014
rhumerus -4.80541 -4.7199 -87.0827
rradius 33.9662
rwrist -27.9917
rhand 9.75486 -31.9283
rfingers 7.12502
rthumb 34.8938 -58.5091
lclavicle 1.35919e-014 -5.96354e-014
lhumerus -16.7875 3.31348 94.6023
lradius 30.0767
lwrist -18.9925
lhand -12.2151 21.0233
lfingers 7.12502
lthumb 13.8497 50.5422
rfemur -9.78283 2.87647 28.1299
rtibia 19.1638
rfoot -12.9809 -11.1094
rtoes 13.5411
lfemur -24.9047 1.89029 -11.3223
ltibia 39.9966
lfoot -12.4831 3.5584
ltoes -11.1853
60
root 40.251 17.6759 6.39104 115.64 -84.6275 -107.709
lowerback -4.09039 -0.0677483 6.5705
upperback -2.67335 -0.473932 4.4374
thorax -0.475561 -0.356156 0.876836
lowerneck -15.0177 -4.58399 -9.25272
upperneck 12.2929 -5.23064 6.48037
head 6.62424 -2.43909 3.05699
rclavicle 5.00689e-015 -2.70347e-014
rhumerus -3.35073 -3.55126 -87.2969
rradius 35.2925
rwrist -28.8781
rhand 9.48774 -32.2577
rfingers 7.12502
rthumb 34.6403 -58.897
lclavicle 5.00689e-015 -2.70347e-014
lhumerus -16.2399 2.38685 94.7256
lradius 30.8479
lwrist -18.4826
lhand -12.2033 20.9757
lfingers 7.12502
lthumb 13.8611 50.4938
rfemur -9.55561 2.8959 28.2448
rtibia 19.0605
rfoot -13.0392 -10.9953
rtoes 13.5928
lfemur -25.4907 1.97449 -11.2863
ltibia 40.6181
lfoot -12.4182 3.65585
ltoes -11.6075
61
root 40.2235 17.6765 6.3792 116.071 -84.5507 -108.195
lowerback -4.05881 -0.00482539 6.67815
upperback -2.72143 -0.388312 4.41856
thorax -0.541425 -0.317665 0.801404
lowerneck -14.8706 -4.60853 -9.29423
upperneck 12.262 -5.27515 6.52369
head 6.59549 -2.46182 3.07486
rclavicle 3.60297e-015 2.46493e-014
rhumerus -1.86087 -2.48903 -87.4517
rradius 36.6633
rwrist -29.6992
rhand 9.17698 -32.5766
rfingers 7.12502
rthumb 34.3453 -59.2831
lclavicle 3.60297e-015 2.46493e-014
lhumerus -15.6893 1.50926 94.807
lradius 31.6227
lwrist -18.007
lhand -12.203 20.9337
lfingers 7.12502
lthumb 13.8613 50.4518
rfemur -9.32459 2.91997 28.3549
rtibia 18.9517
rfoot -13.0992 -10.8833
rtoes 13.6437
lfemur -26.0596 2.0492 -11.2528
ltibia 41.1552
lfoot -12.3442 3.74455
ltoes -12.0005
62
root 40.1942 17.6772 6.36767 116.547 -84.4751 -108.721
lowerback -4.02641 0.0597013 6.78522
upperback -2.7714 -0.300093 4.3955
thorax -0.609317 -0.278054 0.721931
lowerneck -14.7237 -4.63317 -9.32949
upperneck 12.2095 -5.32076 6.57102
head 6.55988 -2.48433 3.0929
rclavicle 3.31722e-015 5.56597e-015
rhumerus -0.3422 -1.53384 -87.5535
rradius 38.0769
rwrist -30.4566
rhand 8.82167 -32.8781
rfingers 7.12502
rthumb 34.0079 -59.6601
lclavicle 3.31722e-015 5.56597e-015
lhumerus -15.1411 0.679689 94.8495
lradius 32.4011
lwrist -17.5629
lhand -12.2105 20.8964
lfingers 7.12502
lthumb 13.8541 50.415
rfemur -9.09168 2.94646 28.4596
rtibia 18.8397
rfoot -13.1605 -10.7725
rtoes 13.6848
lfemur -26.6101 2.11467 -11.2219
ltibia 41.6034
lfoot -12.2617 3.82355
ltoes -12.3586
63
root 40.1631 17.6779 6.35635 117.015 -84.4017 -109.236
lowerback -3.99205 0.122994 6.89053
upperback -2.82621 -0.212784 4.36972
thorax -0.682996 -0.239232 0.640519
lowerneck -14.5672 -4.65589 -9.35889
upperneck 12.1335 -5.36518 6.6207
head 6.51499 -2.50588 3.11104
rclavicle 8.80554e-015 6.36111e-015
rhumerus 1.19447 -0.677659 -87.6084
rradius 39.5321
rwrist -31.1563
rhand 8.42007 -33.1555
rfingers 7.12502
rthumb 33.6263 -60.0215
lclavicle 8.80554e-015 6.36111e-015
lhumerus -14.6034 -0.0957147 94.8553
lradius 33.1826
lwrist -17.149
lhand -12.2285 20.8498
lfingers 7.12502
lthumb 13.8368 50.3695
rfemur -8.853 2.97379 28.5601
rtibia 18.7208
rfoot -13.2231 -10.6656
rtoes 13.722
lfemur -27.1396 2.16755 -11.1919
ltibia 41.9601
lfoot -12.1727 3.89154
ltoes -12.6793
64
root 40.1301 17.6786 6.34521 117.47 -84.332 -109.731
lowerback -3.96081 0.185021 6.99341
upperback -2.88139 -0.127159 4.34049
thorax -0.755046 -0.201298 0.556728
lowerneck -14.4086 -4.67774 -9.38152
upperneck 12.0312 -5.40917 6.67382
head 6.46127 -2.52654 3.12928
rclavicle -9.68765e-015 3.4191e-014
rhumerus 2.7552 0.0777514 -87.6255
rradius 41.0244
rwrist -31.7993
rhand 7.96895 -33.406
rfingers 7.12502
rthumb 33.1975 -60.3644
lclavicle -9.68765e-015 3.4191e-014
lhumerus -14.0728 -0.828512 94.8261
lradius 33.9743
lwrist -16.7577
lhand -12.2467 20.8082
lfingers 7.12502
lthumb 13.8193 50.3292
rfemur -8.61047 3.00209 28.6555
rtibia 18.5972
rfoot -13.2884 -10.5641
rtoes 13.756
lfemur -27.6476 2.20712 -11.163
ltibia 42.2224
lfoot -12.0758 3.94749
ltoes -12.9656
65
root 40.095 17.6794 6.33429 117.883 -84.2654 -110.182
lowerback -3.92406 0.245603 7.09527
upperback -2.93803 -0.0425202 4.30837
thorax -0.831409 -0.164084 0.470371
lowerneck -14.2596 -4.69986 -9.39541
upperneck 11.9076 -5.45335 6.72757
head 6.40227 -2.54656 3.14619
rclavicle 7.20594e-016 1.11319e-014
rhumerus 4.33373 0.738255 -87.609
rradius 42.552
rwrist -32.3931
rhand 7.46823 -33.6233
rfingers 7.12502
rthumb 32.7213 -60.6819
lclavicle 7.20594e-016 1.11319e-014
lhumerus -13.5465 -1.51437 94.7658
lradius 34.7695
lwrist -16.3909
lhand -12.2685 20.7618
lfingers 7.12502
lthumb 13.7982 50.2841
rfemur -8.36077 3.02829 28.7475
rtibia 18.4667
rfoot -13.3565 -10.4673
rtoes 13.7824
lfemur -28.1304 2.23133 -11.1335
ltibia 42.3884
lfoot -11.9725 3.99063
ltoes -13.2053
66
root 40.0581 17.68 6.32352 118.294 -84.2012 -110.623
lowerback -3.89745 0.304724 7.19705
upperback -2.99359 0.0392278 4.27166
thorax -0.900768 -0.128241 0.379115
lowerneck -14.0952 -4.71959 -9.3964
upperneck 11.7426 -5.49644 6.78333
head 6.32715 -2.56544 3.16202
rclavicle 4.10615e-015 2.3059e-014
rhumerus 5.92898 1.30767 -87.5711
rradius 44.1066
rwrist -32.9321
rhand 6.93492 -33.7976
rfingers 7.12502
rthumb 32.2137 -60.9604
lclavicle 4.10615e-015 2.3059e-014
lhumerus -13.0235 -2.15387 94.6716
lradius 35.5674
lwrist -16.0425
lhand -12.2959 20.7185
lfingers 7.12502
lthumb 13.7719 50.2426
rfemur -8.10983 3.05649 28.8354
rtibia 18.3322
rfoot -13.4273 -10.3754
rtoes 13.8058
lfemur -28.592 2.24478 -11.1029
ltibia 42.4574
lfoot -11.8597 4.02391
ltoes -13.4233
67
root 40.0191 17.6805 6.3129 118.671 -84.1399 -111.025
lowerback -3.86671 0.361398 7.29319
upperback -3.05685 0.118831 4.23567
thorax -0.980184 -0.0939725 0.291602
lowerneck -13.9174 -4.73641 -9.39605
upperneck 11.5486 -5.53611 6.84349
head 6.24054 -2.58249 3.17968
rclavicle 7.97002e-015 -4.77083e-014
rhumerus 7.52043 1.79967 -87.5079
rradius 45.6878
rwrist -33.4279
rhand 6.35858 -33.9281
rfingers 7.12502
rthumb 31.6649 -61.2007
lclavicle 7.97002e-015 -4.77083e-014
lhumerus -12.518 -2.74327 94.5545
lradius 36.3693
lwrist -15.7122
lhand -12.3303 20.6631
lfingers 7.12502
lthumb 13.7387 50.1896
rfemur -7.85594 3.0833 28.9204
rtibia 18.1928
rfoot -13.5014 -10.2886
rtoes 13.8208
lfemur -29.0304 2.24509 -11.0702
ltibia 42.4282
lfoot -11.7384 4.04745
ltoes -13.6162
68
root 39.9781 17.6809 6.30245 118.993 -84.0808 -111.366
lowerback -3.84019 0.415295 7.39025
upperback -3.12019 0.194385 4.1971
thorax -1.05722 -0.0618257 0.2007
lowerneck -13.7379 -4.75097 -9.39205
upperneck 11.3256 -5.57293 6.91103
head 6.14453 -2.59747 3.19951
rclavicle 1.67725e-015 -2.22639e-014
rhumerus 9.11755 2.21228 -87.432
rradius 47.285
rwrist -33.8726
rhand 5.74771 -33.9958
rfingers 7.12502
rthumb 31.0829 -61.3814
lclavicle 1.67725e-015 -2.22639e-014
lhumerus -12.016 -3.28827 94.4102
lradius 37.1714
lwrist -15.3956
lhand -12.3654 20.6063
lfingers 7.12502
lthumb 13.7049 50.135
rfemur -7.59902 3.10647 29.004
rtibia 18.0487
rfoot -13.5786 -10.2066
rtoes 13.828
lfemur -29.4455 2.23254 -11.0338
ltibia 42.301
lfoot -11.6085 4.06297
ltoes -13.7858
69
root 39.9351 17.6809 6.29214 119.279 -84.0255 -111.664
lowerback -3.81565 0.466805 7.48351
upperback -3.18559 0.266887 4.15699
thorax -1.13516 -0.0313538 0.11014
lowerneck -13.5495 -4.76315 -9.38352
upperneck 11.0683 -5.6069 6.98388
head 6.03614 -2.61067 3.22082
rclavicle -4.83295e-015 2.94201e-014
rhumerus 10.71 2.55549 -87.3439
rradius 48.8933
rwrist -34.2737
rhand 5.09739 -34.0123
rfingers 7.12502
rthumb 30.4629 -61.5148
lclavicle -4.83295e-015 2.94201e-014
lhumerus -11.5226 -3.79453 94.2433
lradius 37.9762
lwrist -15.0881
lhand -12.4059 20.5486
lfingers 7.12502
lthumb 13.6658 50.08
rfemur -7.33963 3.12675 29.0841
rtibia 17.9008
rfoot -13.6601 -10.1301
rtoes 13.8269
lfemur -29.8366 2.20607 -10.9951
ltibia 42.0773
lfoot -11.4685 4.07012
ltoes -13.9339
70
root 39.8901 17.6807 6.28199 119.522 -83.9716 -111.913
lowerback -3.78887 0.516797 7.57528
upperback -3.25172 0.337812 4.1157
thorax -1.21492 -0.00184967 0.0190522
lowerneck -13.3672 -4.775 -9.3666
upperneck 10.7822 -5.63977 7.05838
head 5.91974 -2.62283 3.24141
rclavicle 9.7156e-015 -2.22639e-014
rhumerus 12.2964 2.83415 -87.2452
rradius 50.507
rwrist -34.6371
rhand 4.41045 -33.9695
rfingers 7.12502
rthumb 29.8075 -61.5914
lclavicle 9.7156e-015 -2.22639e-014
lhumerus -11.0328 -4.26904 94.0551
lradius 38.7829
lwrist -14.786
lhand -12.451 20.4886
lfingers 7.12502
lthumb 13.6224 50.0229
rfemur -7.07828 3.14436 29.1635
rtibia 17.7503
rfoot -13.7457 -10.0589
rtoes 13.8168
lfemur -30.2038 2.16637 -10.9504
ltibia 41.7593
lfoot -11.3207 4.07096
ltoes -14.0525
71
root 39.8429 17.6801 6.27199 119.73 -83.9193 -112.121
lowerback -3.76444 0.564452 7.66568
upperback -3.31996 0.405578 4.07331
thorax -1.29547 0.0258671 -0.0725677
lowerneck -13.1741 -4.78421 -9.34436
upperneck 10.4602 -5.66938 7.13722
head 5.79023 -2.63325 3.26314
rclavicle -2.99419e-015 6.91771e-014
rhumerus 13.8674 3.05811 -87.1411
rradius 52.1182
rwrist -34.9676
rhand 3.69093 -33.8863
rfingers 7.12502
rthumb 29.1206 -61.6293
lclavicle -2.99419e-015 6.91771e-014
lhumerus -10.5515 -4.71084 93.8458
lradius 39.5919
lwrist -14.4899
lhand -12.4977 20.4251
lfingers 7.12502
lthumb 13.5774 49.9624
rfemur -6.81518 3.15825 29.2418
rtibia 17.5975
rfoot -13.8363 -9.99136
rtoes 13.7986
lfemur -30.5472 2.11435 -10.9002
ltibia 41.349
lfoot -11.166 4.0688
ltoes -14.1432
